# xmcd
#
# Track frame offsets:
# 182
# 14502
# 29240
# 48185
# 65557
# 82142
# 98372
# 114832
# 131192
# 142877
# 155775
# 177222
# 195702
# 210317
# 224855
# 239247
# 255040
# 268970
# 283917
# 294590
#
# Disc length: 4151 seconds
#
#
# Revision: 0
# Processed by: cddbd v1.5.2PL0 Copyright (c) Steve Scherf et al.
# Submitted via: FreeRIP 2.951 
#
DISCID=3c103514
DTITLE=Eydie Gorme - The Velvet Voice
DYEAR=1996
DGENRE=Easy Listening
TTITLE0=What'll I Do
TTITLE1=Hay Muy Pocos
TTITLE2=But He Was Good For Me
TTITLE3=Te Sigo Amando
TTITLE4=God Bless The Child
TTITLE5=Si Vuelves Tu
TTITLE6='Round Midnight
TTITLE7=Eres Tu (Touch The Wind)
TTITLE8=You're Nobody Till Somebody Loves You
TTITLE9=Esta Tarde Vi Llover
TTITLE10=Send In The Clowns
TTITLE11=Quiereme Mucho (Yours)
TTITLE12=Since I Fell For You
TTITLE13=Muy Amigos
TTITLE14=Breaking Up Is Hard To Do
TTITLE15=Sabras Que Te Quiero
TTITLE16=Come In From The Rain
TTITLE17=Tomame O Dejame
TTITLE18=The First Time
TTITLE19=Dime (Feelings)
EXTD=5 030073 041421\nRunning Time 69'09"
EXTT0=
EXTT1=
EXTT2=
EXTT3=
EXTT4=
EXTT5=
EXTT6=
EXTT7=
EXTT8=
EXTT9=
EXTT10=
EXTT11=
EXTT12=
EXTT13=
EXTT14=
EXTT15=
EXTT16=
EXTT17=
EXTT18=
EXTT19=
PLAYORDER=
